<?xml version="1.0" encoding="UTF-8" standalone="no"?>
<!-- Created with Inkscape (http://www.inkscape.org/) -->

<svg
   xmlns:dc="http://purl.org/dc/elements/1.1/"
   xmlns:cc="http://creativecommons.org/ns#"
   xmlns:rdf="http://www.w3.org/1999/02/22-rdf-syntax-ns#"
   xmlns:svg="http://www.w3.org/2000/svg"
   xmlns="http://www.w3.org/2000/svg"
   xmlns:sodipodi="http://sodipodi.sourceforge.net/DTD/sodipodi-0.dtd"
   xmlns:inkscape="http://www.inkscape.org/namespaces/inkscape"
   width="150"
   height="150"
   id="svg3501"
   version="1.1"
   inkscape:version="0.48.3.1 r9886"
   sodipodi:docname="blackBishop.svg"
   inkscape:export-filename="/home/adriano/Desktop/Images/png/blackBishop.png"
   inkscape:export-xdpi="90"
   inkscape:export-ydpi="90">
  <defs
     id="defs3503" />
  <sodipodi:namedview
     id="base"
     pagecolor="#ffffff"
     bordercolor="#666666"
     borderopacity="1.0"
     inkscape:pageopacity="0.0"
     inkscape:pageshadow="2"
     inkscape:zoom="1.4"
     inkscape:cx="-8.3688419"
     inkscape:cy="78.599051"
     inkscape:document-units="px"
     inkscape:current-layer="layer1"
     showgrid="false"
     inkscape:window-width="927"
     inkscape:window-height="1027"
     inkscape:window-x="991"
     inkscape:window-y="24"
     inkscape:window-maximized="0" />
  <metadata
     id="metadata3506">
    <rdf:RDF>
      <cc:Work
         rdf:about="">
        <dc:format>image/svg+xml</dc:format>
        <dc:type
           rdf:resource="http://purl.org/dc/dcmitype/StillImage" />
        <dc:title></dc:title>
      </cc:Work>
    </rdf:RDF>
  </metadata>
  <g
     inkscape:label="Layer 1"
     inkscape:groupmode="layer"
     id="layer1"
     transform="translate(0,-902.36218)">
    <g
       id="g63818"
       transform="translate(177.62423,857.02268)">
      <g
         id="g63820"
         transform="matrix(3.4156897,0,0,3.3289941,-1005.3432,-2662.945)">
        <path
           style="fill:#ffffff;stroke:#ffffff;stroke-width:0.44479999;stroke-linejoin:round"
           inkscape:connector-curvature="0"
           id="path63822"
           d="m 250.786,848.362 c 2.471,-1.234 10.115,0.128 13.5,-2.303 3.385,2.431 11.125,0.964 13.352,2.303 2.202,1.325 1.942,0.903 2.556,2.589 -0.677,0.972 -1.054,1.593 -2.408,1.107 -3.385,-0.972 -10.115,0.458 -13.5,-1 -3.385,1.458 -10.115,0.028 -13.5,1 -1.354,0.486 -1.731,-0.21 -2.408,-1.183 1.353,-1.945 0.057,-1.34 2.408,-2.513 z" />
        <path
           style="fill:#ffffff;stroke:#ffffff;stroke-width:0.44479999;stroke-linejoin:round"
           inkscape:connector-curvature="0"
           id="path63824"
           d="m 256.786,845.557 c 2.5,2.5 12.5,2.5 15,0 0.5,-1.5 0,-2 0,-2 0,-2.5 -2.062,-4 -2.062,-4 5.5,-1.5 5.562,-11.5 -5.438,-15.5 -11,4 -10.722,14.152 -5.222,15.652 0,0 -2.352,0.969 -2.352,3.469 0,0 -0.426,0.879 0.074,2.379 z" />
        <path
           style="fill:#ffffff;stroke:#ffffff;stroke-width:0.3651;stroke-linejoin:round"
           inkscape:connector-curvature="0"
           id="path63826"
           d="m 267.311,822.842 c 0,1.636 -1.402,2.962 -3.132,2.962 -1.73,0 -3.132,-1.326 -3.132,-2.962 0,-1.636 1.402,-2.962 3.132,-2.962 1.729,-10e-4 3.132,1.326 3.132,2.962 z" />
        <path
           style="fill:#ff8bff;stroke:#ff78ff;stroke-width:0.44479999;stroke-linecap:round"
           inkscape:connector-curvature="0"
           id="path63828"
           d="m 259.286,839.557 h 10" />
        <path
           style="fill:#ff8bff;stroke:#ff78ff;stroke-width:0.44479999;stroke-linecap:round"
           inkscape:connector-curvature="0"
           id="path63830"
           d="m 264.286,829.057 v 5" />
        <path
           style="fill:#ff8bff;stroke:#ff78ff;stroke-width:0.44479999;stroke-linecap:round"
           inkscape:connector-curvature="0"
           id="path63832"
           d="m 261.786,831.557 h 5" />
      </g>
      <g
         id="g63834"
         transform="matrix(3.067229,0,0,3.067558,-913.48194,-2443.602)">
        <path
           style="stroke:#000000;stroke-width:0.48899999;stroke-linejoin:round"
           inkscape:connector-curvature="0"
           id="path63836"
           d="m 250.786,849.557 c 3.385,-0.973 10.114,0.431 13.5,-2 3.385,2.431 10.115,1.028 13.5,2 0,0 1.646,0.542 3,2 -0.677,0.972 -1.646,0.986 -3,0.5 -3.385,-0.973 -10.115,0.458 -13.5,-1 -3.385,1.459 -10.115,0.028 -13.5,1 -1.354,0.486 -2.323,0.472 -3,-0.5 1.354,-1.945 3,-2 3,-2 z" />
        <path
           style="stroke:#000000;stroke-width:0.48899999;stroke-linejoin:round"
           inkscape:connector-curvature="0"
           id="path63838"
           d="m 256.786,845.557 c 2.5,2.5 12.5,2.5 15,0 0.5,-1.5 0,-2 0,-2 0,-2.5 -2.5,-4 -2.5,-4 5.5,-1.5 6,-11.5 -5,-15.5 -11,4 -10.5,14 -5,15.5 0,0 -2.5,1.5 -2.5,4 0,0 -0.5,0.5 0,2 z" />
        <path
           style="stroke:#000000;stroke-width:0.48899999;stroke-linejoin:round"
           inkscape:connector-curvature="0"
           id="path63840"
           d="m 266.786,821.557 c 0,1.381 -1.119,2.5 -2.5,2.5 -1.381,0 -2.5,-1.119 -2.5,-2.5 0,-1.381 1.119,-2.5 2.5,-2.5 1.381,0 2.5,1.119 2.5,2.5 z" />
        <path
           style="fill:none;stroke:#ffffff;stroke-width:0.48899999;stroke-linecap:round"
           inkscape:connector-curvature="0"
           id="path63842"
           d="m 259.286,839.557 h 10" />
        <path
           style="fill:none;stroke:#ffffff;stroke-width:0.48899999;stroke-linecap:round"
           inkscape:connector-curvature="0"
           id="path63844"
           d="m 256.786,843.557 h 15" />
        <path
           style="fill:none;stroke:#ffffff;stroke-width:0.48899999;stroke-linecap:round"
           inkscape:connector-curvature="0"
           id="path63846"
           d="m 264.286,829.057 v 5" />
        <path
           style="fill:none;stroke:#ffffff;stroke-width:0.48899999;stroke-linecap:round"
           inkscape:connector-curvature="0"
           id="path63848"
           d="m 261.786,831.557 h 5" />
      </g>
    </g>
  </g>
</svg>
