<?xml version="1.0" encoding="UTF-8" standalone="no"?>
<!-- Created with Inkscape (http://www.inkscape.org/) -->

<svg
   xmlns:dc="http://purl.org/dc/elements/1.1/"
   xmlns:cc="http://creativecommons.org/ns#"
   xmlns:rdf="http://www.w3.org/1999/02/22-rdf-syntax-ns#"
   xmlns:svg="http://www.w3.org/2000/svg"
   xmlns="http://www.w3.org/2000/svg"
   xmlns:sodipodi="http://sodipodi.sourceforge.net/DTD/sodipodi-0.dtd"
   xmlns:inkscape="http://www.inkscape.org/namespaces/inkscape"
   width="150"
   height="150"
   id="svg3501"
   version="1.1"
   inkscape:version="0.48.3.1 r9886"
   sodipodi:docname="blackKing.svg"
   inkscape:export-filename="/home/adriano/Desktop/Images/png/blackKing.png"
   inkscape:export-xdpi="90"
   inkscape:export-ydpi="90">
  <defs
     id="defs3503" />
  <sodipodi:namedview
     id="base"
     pagecolor="#ffffff"
     bordercolor="#666666"
     borderopacity="1.0"
     inkscape:pageopacity="0.0"
     inkscape:pageshadow="2"
     inkscape:zoom="1.4"
     inkscape:cx="-8.3688419"
     inkscape:cy="78.599051"
     inkscape:document-units="px"
     inkscape:current-layer="layer1"
     showgrid="false"
     inkscape:window-width="927"
     inkscape:window-height="1027"
     inkscape:window-x="991"
     inkscape:window-y="24"
     inkscape:window-maximized="0" />
  <metadata
     id="metadata3506">
    <rdf:RDF>
      <cc:Work
         rdf:about="">
        <dc:format>image/svg+xml</dc:format>
        <dc:type
           rdf:resource="http://purl.org/dc/dcmitype/StillImage" />
        <dc:title></dc:title>
      </cc:Work>
    </rdf:RDF>
  </metadata>
  <g
     inkscape:label="Layer 1"
     inkscape:groupmode="layer"
     id="layer1"
     transform="translate(0,-902.36218)">
    <g
       id="g70004"
       transform="translate(-1221.9854,495.39058)">
      <g
         id="g67079"
         transform="matrix(3.677456,0,0,3.6776632,-684.87287,-2670.1206)">
        <path
           style="fill:#ffffff;stroke:#ffffff;stroke-width:1.63150001;stroke-linecap:round"
           inkscape:connector-curvature="0"
           id="path67081"
           d="m 539.02,848.199 v -5.625" />
        <path
           style="fill:#ffffff;stroke:#ffffff;stroke-width:0.40790001"
           inkscape:connector-curvature="0"
           id="path67083"
           d="m 539.02,859.736 c 0,0 4.775,-7.569 3.275,-10.569 0,0 -1.275,-2.431 -3.275,-2.431 -2,0 -3.275,2.569 -3.275,2.569 -1.5,3 3.275,10.431 3.275,10.431" />
        <path
           style="fill:#ffffff;stroke:#ffffff;stroke-width:0.40790001;stroke-linecap:round;stroke-linejoin:round"
           inkscape:connector-curvature="0"
           id="path67085"
           d="m 528.363,869.629 c 5.5,3.5 15.157,3.431 20.657,-0.068 l -0.069,-6.313 c 0,0 7.352,-3.607 4.352,-9.607 -4,-6.5 -13.5,-3.5 -16,4 l 1.717,1.921 v -3.5 c -3.637,-6.127 -10.734,-8.44 -14.421,-2.833 -3,6 3.627,10 3.627,10 l 0.137,6.4 z" />
        <path
           style="fill:#ffffff;stroke:#ffffff;stroke-width:1.63150001;stroke-linecap:round"
           inkscape:connector-curvature="0"
           id="path67087"
           d="m 536.52,844.574 h 5" />
      </g>
      <g
         id="g67061"
         transform="matrix(3.067229,0,0,3.067558,-329.09607,-2142.8556)">
        <path
           style="fill:none;stroke:#000000;stroke-width:0.48899999;stroke-linecap:round"
           inkscape:connector-curvature="0"
           id="path67063"
           d="m 530.292,844.402 v -5.625" />
        <path
           style="stroke:#000000;stroke-width:0.48899999"
           inkscape:connector-curvature="0"
           id="path67065"
           d="m 530.292,857.777 c 0,0 4.5,-7.5 3,-10.5 0,0 -1,-2.5 -3,-2.5 -2,0 -3,2.5 -3,2.5 -1.5,3 3,10.5 3,10.5" />
        <path
           style="stroke:#000000;stroke-width:0.48899999;stroke-linecap:round;stroke-linejoin:round"
           inkscape:connector-curvature="0"
           id="path67067"
           d="m 519.292,869.777 c 5.5,3.5 15.5,3.5 21,0 v -7 c 0,0 9,-4.5 6,-10.5 -4,-6.5 -13.5,-3.5 -16,4 v 3.5 -3.5 c -3.5,-7.5 -13,-10.5 -16,-4 -3,6 5,10 5,10 v 7.5 z" />
        <path
           style="fill:none;stroke:#000000;stroke-width:0.48899999;stroke-linecap:round"
           inkscape:connector-curvature="0"
           id="path67069"
           d="m 527.792,840.777 h 5" />
        <path
           style="fill:none;stroke:#ffffff;stroke-width:0.48899999;stroke-linecap:round"
           inkscape:connector-curvature="0"
           id="path67071"
           d="m 519.292,862.277 c 5.5,-2.5 15.5,-2.5 21,0.5" />
        <path
           style="fill:none;stroke:#ffffff;stroke-width:0.48899999;stroke-linecap:round;stroke-linejoin:round"
           inkscape:connector-curvature="0"
           id="path67073"
           d="m 519.292,869.777 c 5.5,-2.5 15.5,-2.5 21,0" />
        <path
           style="fill:none;stroke:#ffffff;stroke-width:0.48899999;stroke-linecap:round;stroke-linejoin:round"
           inkscape:connector-curvature="0"
           id="path67075"
           d="m 519.292,866.277 c 5.5,-2 15.5,-2 21,0" />
        <path
           style="fill:none;stroke:#ffffff;stroke-width:0.48899999;stroke-linecap:round;stroke-linejoin:round"
           inkscape:connector-curvature="0"
           id="path67077"
           d="m 539.792,862.277 c 0,0 8.5,-4 6.026,-9.654 -3.879,-5.85 -13.026,-1.846 -15.526,4.654 l 0.012,2.097 -0.012,-2.097 c -2.5,-6.5 -12.593,-10.503 -15.503,-4.654 -2.497,5.654 4.848,9 4.848,9" />
      </g>
    </g>
  </g>
</svg>
