<?xml version="1.0" encoding="UTF-8" standalone="no"?>
<!-- Created with Inkscape (http://www.inkscape.org/) -->

<svg
   xmlns:dc="http://purl.org/dc/elements/1.1/"
   xmlns:cc="http://creativecommons.org/ns#"
   xmlns:rdf="http://www.w3.org/1999/02/22-rdf-syntax-ns#"
   xmlns:svg="http://www.w3.org/2000/svg"
   xmlns="http://www.w3.org/2000/svg"
   xmlns:sodipodi="http://sodipodi.sourceforge.net/DTD/sodipodi-0.dtd"
   xmlns:inkscape="http://www.inkscape.org/namespaces/inkscape"
   width="150"
   height="150"
   id="svg3276"
   version="1.1"
   inkscape:version="0.48.3.1 r9886"
   sodipodi:docname="New document 1">
  <defs
     id="defs3278" />
  <sodipodi:namedview
     id="base"
     pagecolor="#ffffff"
     bordercolor="#666666"
     borderopacity="1.0"
     inkscape:pageopacity="0.0"
     inkscape:pageshadow="2"
     inkscape:zoom="1.4"
     inkscape:cx="8.8190571"
     inkscape:cy="86.621237"
     inkscape:document-units="px"
     inkscape:current-layer="layer1"
     showgrid="false"
     inkscape:window-width="927"
     inkscape:window-height="1028"
     inkscape:window-x="993"
     inkscape:window-y="24"
     inkscape:window-maximized="0" />
  <metadata
     id="metadata3281">
    <rdf:RDF>
      <cc:Work
         rdf:about="">
        <dc:format>image/svg+xml</dc:format>
        <dc:type
           rdf:resource="http://purl.org/dc/dcmitype/StillImage" />
        <dc:title></dc:title>
      </cc:Work>
    </rdf:RDF>
  </metadata>
  <g
     inkscape:label="Layer 1"
     inkscape:groupmode="layer"
     id="layer1"
     transform="translate(0,-902.36218)">
    <g
       id="g67023"
       transform="translate(-1474.098,612.60373)">
      <path
         style="fill:#ffffff;stroke:#ffffff;stroke-width:0.2277;stroke-linecap:round;stroke-linejoin:round"
         inkscape:connector-curvature="0"
         id="path67025"
         d="m 1507.083,331.895 c 0,4.852 -3.932,8.784 -8.783,8.784 -4.85,0 -8.783,-3.933 -8.783,-8.784 0,-4.851 3.934,-8.783 8.783,-8.783 4.852,-0.001 8.783,3.931 8.783,8.783 z" />
      <path
         style="fill:#ffffff;stroke:#ffffff;stroke-width:0.2277;stroke-linecap:round;stroke-linejoin:round"
         inkscape:connector-curvature="0"
         id="path67027"
         d="m 1531.908,320.88 c 0,4.852 -3.932,8.784 -8.783,8.784 -4.85,0 -8.783,-3.933 -8.783,-8.784 0,-4.851 3.934,-8.783 8.783,-8.783 4.851,0 8.783,3.932 8.783,8.783 z" />
      <path
         style="fill:#ffffff;stroke:#ffffff;stroke-width:0.2277;stroke-linecap:round;stroke-linejoin:round"
         inkscape:connector-curvature="0"
         id="path67029"
         d="m 1557.919,318.103 c 0,4.851 -3.932,8.783 -8.783,8.783 -4.851,0 -8.783,-3.933 -8.783,-8.783 0,-4.852 3.932,-8.784 8.783,-8.784 4.851,0 8.783,3.932 8.783,8.784 z" />
      <path
         style="fill:#ffffff;stroke:#ffffff;stroke-width:0.2277;stroke-linecap:round;stroke-linejoin:round"
         inkscape:connector-curvature="0"
         id="path67031"
         d="m 1584.183,323.153 c 0,4.851 -3.932,8.783 -8.783,8.783 -4.85,0 -8.783,-3.933 -8.783,-8.783 0,-4.852 3.934,-8.784 8.783,-8.784 4.851,0 8.783,3.933 8.783,8.784 z" />
      <path
         style="fill:#ffffff;stroke:#ffffff;stroke-width:1;stroke-linejoin:round"
         inkscape:connector-curvature="0"
         id="path67033"
         d="m 1503.457,372.168 c 29.279,-5.168 70.568,-5.168 91.234,0 l 5.627,-44.874 -22.092,32.843 -1.01,-42.42 -18.188,43.476 -10.08,-49.4 -9.83,48.643 -18.186,-43.683 -0.254,46.162 -22.09,-33.6 4.869,42.853 z" />
      <path
         style="fill:#ffffff;stroke:#ffffff;stroke-width:1;stroke-linejoin:round"
         inkscape:connector-curvature="0"
         id="path67035"
         d="m 1503.457,372.168 c 0,6.89 4.158,7.647 7.602,14.537 3.445,5.167 4.455,2.688 2.732,11.299 -5.166,3.445 -5.166,8.612 -5.166,8.612 -5.168,5.167 1.723,10.612 1.723,10.612 22.389,3.445 54.813,3.445 77.203,0 0,0 5.166,-5.445 0,-10.612 0,0 1.721,-5.167 -3.445,-8.612 -1.723,-8.611 0.299,-6.89 3.742,-12.057 3.445,-6.89 6.592,-6.89 6.592,-13.779 -29.28,-5.168 -61.704,-5.168 -90.983,0 z" />
      <path
         style="fill:#ffffff;stroke:#ffffff;stroke-width:0.2277;stroke-linecap:round;stroke-linejoin:round"
         inkscape:connector-curvature="0"
         id="path67037"
         d="m 1608.679,331.739 c 0,4.851 -3.932,8.784 -8.783,8.784 -4.85,0 -8.783,-3.934 -8.783,-8.784 0,-4.852 3.934,-8.784 8.783,-8.784 4.852,0 8.783,3.933 8.783,8.784 z" />
      <g
         id="g67039"
         transform="matrix(3.067229,0,0,3.067558,-1332.787,-2735.3764)">
        <path
           style="stroke:#000000;stroke-width:0.32600001;stroke-linecap:round;stroke-linejoin:round"
           inkscape:connector-curvature="0"
           id="path67041"
           d="m 925.116,999.951 c 0,1.105 -0.895,2 -2,2 -1.104,0 -1.999,-0.895 -1.999,-2 0,-1.105 0.895,-2 1.999,-2 1.105,0 2,0.896 2,2 z" />
        <path
           style="stroke:#000000;stroke-width:0.32600001;stroke-linecap:round;stroke-linejoin:round"
           inkscape:connector-curvature="0"
           id="path67043"
           d="m 941.616,995.451 c 0,1.104 -0.895,2 -2,2 -1.104,0 -2,-0.896 -2,-2 0,-1.105 0.895,-2 2,-2 1.105,0 2,0.896 2,2 z" />
        <path
           style="stroke:#000000;stroke-width:0.32600001;stroke-linecap:round;stroke-linejoin:round"
           inkscape:connector-curvature="0"
           id="path67045"
           d="m 958.116,999.951 c 0,1.105 -0.895,2 -2,2 -1.104,0 -2,-0.895 -2,-2 0,-1.105 0.896,-2 2,-2 1.105,0 2,0.896 2,2 z" />
        <path
           style="stroke:#000000;stroke-width:0.32600001;stroke-linecap:round;stroke-linejoin:round"
           inkscape:connector-curvature="0"
           id="path67047"
           d="m 933.116,996.451 c 0,1.105 -0.896,2 -2,2 -1.105,0 -2,-0.895 -2,-2 0,-1.105 0.895,-2 2,-2 1.104,0 2,0.896 2,2 z" />
        <path
           style="stroke:#000000;stroke-width:0.32600001;stroke-linecap:round;stroke-linejoin:round"
           inkscape:connector-curvature="0"
           id="path67049"
           d="m 950.116,996.951 c 0,1.105 -0.895,2 -2,2 -1.105,0 -2,-0.896 -2,-2 0,-1.104 0.895,-2 2,-2 1.105,0 2,0.896 2,2 z" />
        <path
           style="stroke:#000000;stroke-width:0.32600001;stroke-linejoin:round"
           inkscape:connector-curvature="0"
           id="path67051"
           d="m 926.116,1013.951 c 8.5,-1.5 21,-1.5 27,0 l 2,-12 -7,11 v -14 l -5.5,13.5 -3,-15 -3,15 -5.5,-14 v 14.5 l -7,-11 2,12 z" />
        <path
           style="stroke:#000000;stroke-width:0.32600001;stroke-linejoin:round"
           inkscape:connector-curvature="0"
           id="path67053"
           d="m 926.116,1013.951 c 0,2 1.5,2 2.5,4 1,1.5 1,1 0.5,3.5 -1.5,1 -1.5,2.5 -1.5,2.5 -1.5,1.5 0.501,2.5 0.501,2.5 6.5,1 16.5,1 23,0 0,0 1.5,-1 0,-2.5 0,0 0.5,-1.5 -1,-2.5 -0.5,-2.5 -0.5,-2 0.5,-3.5 1,-2 2.5,-2 2.5,-4 -8.501,-1.5 -18.501,-1.5 -27.001,0 z" />
        <path
           style="fill:none;stroke:#ffffff;stroke-width:0.32600001;stroke-linecap:round;stroke-linejoin:round"
           inkscape:connector-curvature="0"
           id="path67055"
           d="m 928.616,1017.951 c 3.5,-1 18.5,-1 22,0" />
        <path
           style="fill:none;stroke:#ffffff;stroke-width:0.32600001;stroke-linecap:round;stroke-linejoin:round"
           inkscape:connector-curvature="0"
           id="path67057"
           d="m 929.116,1021.451 c 6,-1 15,-1 21,0" />
        <path
           style="fill:none;stroke:#ffffff;stroke-width:0.32600001;stroke-linecap:round;stroke-linejoin:round"
           inkscape:connector-curvature="0"
           id="path67059"
           d="m 927.616,1023.951 c 5,-1 18.5,-1 23.5,0" />
      </g>
    </g>
  </g>
</svg>
