<?xml version="1.0" encoding="UTF-8" standalone="no"?>
<!-- Created with Inkscape (http://www.inkscape.org/) -->

<svg
   xmlns:dc="http://purl.org/dc/elements/1.1/"
   xmlns:cc="http://creativecommons.org/ns#"
   xmlns:rdf="http://www.w3.org/1999/02/22-rdf-syntax-ns#"
   xmlns:svg="http://www.w3.org/2000/svg"
   xmlns="http://www.w3.org/2000/svg"
   xmlns:sodipodi="http://sodipodi.sourceforge.net/DTD/sodipodi-0.dtd"
   xmlns:inkscape="http://www.inkscape.org/namespaces/inkscape"
   width="150"
   height="150"
   id="svg3501"
   version="1.1"
   inkscape:version="0.48.3.1 r9886"
   sodipodi:docname="blackPawn.svg"
   inkscape:export-filename="/home/adriano/Desktop/Images/png/blackRook.png"
   inkscape:export-xdpi="90"
   inkscape:export-ydpi="90">
  <defs
     id="defs3503" />
  <sodipodi:namedview
     id="base"
     pagecolor="#ffffff"
     bordercolor="#666666"
     borderopacity="1.0"
     inkscape:pageopacity="0.0"
     inkscape:pageshadow="2"
     inkscape:zoom="1.4"
     inkscape:cx="-8.3688419"
     inkscape:cy="78.599051"
     inkscape:document-units="px"
     inkscape:current-layer="layer1"
     showgrid="false"
     inkscape:window-width="927"
     inkscape:window-height="1028"
     inkscape:window-x="993"
     inkscape:window-y="24"
     inkscape:window-maximized="0" />
  <metadata
     id="metadata3506">
    <rdf:RDF>
      <cc:Work
         rdf:about="">
        <dc:format>image/svg+xml</dc:format>
        <dc:type
           rdf:resource="http://purl.org/dc/dcmitype/StillImage" />
        <dc:title></dc:title>
      </cc:Work>
    </rdf:RDF>
  </metadata>
  <g
     inkscape:label="Layer 1"
     inkscape:groupmode="layer"
     id="layer1"
     transform="translate(0,-902.36218)">
    <path
       style="stroke:#ffffff;stroke-width:5;stroke-linecap:round"
       inkscape:connector-curvature="0"
       id="path17054"
       d="m 75.001,930.58168 c -6.773,0 -12.27,5.498 -12.27,12.27099 0,2.715 0.901,5.25301 2.396,7.286 -5.987,3.441 -10.064,9.857 -10.064,17.255 0,6.239 2.89,11.776 7.381,15.434 -9.199,3.245 -22.717,17.015 -22.717,41.31503 h 70.546 c 0,-24.30103 -13.518,-38.07003 -22.717,-41.31503 4.491,-3.657 7.381,-9.194 7.381,-15.434 0,-7.397 -4.077,-13.813 -10.064,-17.255 1.495,-2.033 2.396,-4.571 2.396,-7.286 0,-6.773 -5.497,-12.27099 -12.268,-12.27099 z" />
  </g>
</svg>
