<?xml version="1.0" encoding="UTF-8" standalone="no"?>
<!-- Generator: Adobe Illustrator 14.0.0, SVG Export Plug-In . SVG Version: 6.00 Build 43363)  -->

<svg
   xmlns:dc="http://purl.org/dc/elements/1.1/"
   xmlns:cc="http://creativecommons.org/ns#"
   xmlns:rdf="http://www.w3.org/1999/02/22-rdf-syntax-ns#"
   xmlns:svg="http://www.w3.org/2000/svg"
   xmlns="http://www.w3.org/2000/svg"
   xmlns:sodipodi="http://sodipodi.sourceforge.net/DTD/sodipodi-0.dtd"
   xmlns:inkscape="http://www.inkscape.org/namespaces/inkscape"
   version="1.1"
   id="svg2"
   x="0px"
   y="0px"
   width="1500"
   height="1500"
   viewBox="0 0 1500 1500"
   enable-background="new 0 0 1450 1450"
   xml:space="preserve"
   inkscape:version="0.48.3.1 r9886"
   sodipodi:docname="board.svg"
   inkscape:export-filename="/home/adriano/Desktop/Images/board.png"
   inkscape:export-xdpi="90"
   inkscape:export-ydpi="90"><metadata
   id="metadata299"><rdf:RDF><cc:Work
       rdf:about=""><dc:format>image/svg+xml</dc:format><dc:type
         rdf:resource="http://purl.org/dc/dcmitype/StillImage" /><dc:title></dc:title></cc:Work></rdf:RDF></metadata><defs
   id="defs297" /><sodipodi:namedview
   pagecolor="#ffffff"
   bordercolor="#666666"
   borderopacity="1"
   objecttolerance="10"
   gridtolerance="10"
   guidetolerance="10"
   inkscape:pageopacity="0"
   inkscape:pageshadow="2"
   inkscape:window-width="1855"
   inkscape:window-height="1056"
   id="namedview295"
   showgrid="false"
   inkscape:zoom="0.35355339"
   inkscape:cx="570.52532"
   inkscape:cy="411.6543"
   inkscape:window-x="65"
   inkscape:window-y="24"
   inkscape:window-maximized="1"
   inkscape:current-layer="svg2" />

































<text
   xml:space="preserve"
   style="font-size:40px;font-style:normal;font-weight:normal;line-height:125%;letter-spacing:0px;word-spacing:0px;fill:#000000;fill-opacity:1;stroke:none;font-family:Sans"
   x="-939.03778"
   y="354.48703"
   id="text3326"
   sodipodi:linespacing="125%"><tspan
     sodipodi:role="line"
     id="tspan3328"
     x="-939.03778"
     y="354.48703" /></text>
<g
   id="g3878"
   transform="translate(0,3.8146973e-6)"><path
     style="fill:#000000"
     d="m 298,1125 0,-77 77,0 77,0 0,77 0,77 -77,0 -77,0 0,-77 z"
     id="path3081"
     inkscape:connector-curvature="0" /><path
     inkscape:connector-curvature="0"
     id="path3097"
     d="m 148,1275 0,-77 77,0 77,0 0,77 0,77 -77,0 -77,0 0,-77 z"
     style="fill:#000000" /><path
     style="fill:#000000"
     d="m 448,975 0,-77 77,0 77,0 0,77 0,77 -77,0 -77,0 0,-77 z"
     id="path3099"
     inkscape:connector-curvature="0" /><path
     inkscape:connector-curvature="0"
     id="path3101"
     d="m 748,675 0,-77 77,0 77,0 0,77 0,77 -77,0 -77,0 0,-77 z"
     style="fill:#000000" /><path
     style="fill:#000000"
     d="m 598,825 0,-77 77,0 77,0 0,77 0,77 -77,0 -77,0 0,-77 z"
     id="path3103"
     inkscape:connector-curvature="0" /><path
     inkscape:connector-curvature="0"
     id="path3105"
     d="m 898,525 0,-77 77,0 77,0 0,77 0,77 -77,0 -77,0 0,-77 z"
     style="fill:#000000" /><path
     style="fill:#000000"
     d="m 1196,227 0,-77 77,0 77,0 0,77 0,77 -77,0 -77,0 0,-77 z"
     id="path3107"
     inkscape:connector-curvature="0" /><path
     inkscape:connector-curvature="0"
     id="path3109"
     d="m 1048,375 0,-77 77,0 77,0 0,77 0,77 -77,0 -77,0 0,-77 z"
     style="fill:#000000" /><path
     inkscape:connector-curvature="0"
     id="path3127"
     d="m 298,525 0,-77 77,0 77,0 0,77 0,77 -77,0 -77,0 0,-77 z"
     style="fill:#000000" /><path
     style="fill:#000000"
     d="m 148,675 0,-77 77,0 77,0 0,77 0,77 -77,0 -77,0 0,-77 z"
     id="path3129"
     inkscape:connector-curvature="0" /><path
     inkscape:connector-curvature="0"
     id="path3131"
     d="m 448,375 0,-77 77,0 77,0 0,77 0,77 -77,0 -77,0 0,-77 z"
     style="fill:#000000" /><path
     style="fill:#000000"
     d="m 748,375 0,-77 77,0 77,0 0,77 0,77 -77,0 -77,0 0,-77 z"
     id="path3133"
     inkscape:connector-curvature="0" /><path
     inkscape:connector-curvature="0"
     id="path3135"
     d="m 598,225 0,-77 77,0 77,0 0,77 0,77 -77,0 -77,0 0,-77 z"
     style="fill:#000000" /><path
     style="fill:#000000"
     d="m 898,225 0,-77 77,0 77,0 0,77 0,77 -77,0 -77,0 0,-77 z"
     id="path3137"
     inkscape:connector-curvature="0" /><path
     inkscape:connector-curvature="0"
     id="path3139"
     d="m 598,1125 0,-77 77,0 77,0 0,77 0,77 -77,0 -77,0 0,-77 z"
     style="fill:#000000" /><path
     style="fill:#000000"
     d="m 448,1275 0,-77 77,0 77,0 0,77 0,77 -77,0 -77,0 0,-77 z"
     id="path3141"
     inkscape:connector-curvature="0" /><path
     inkscape:connector-curvature="0"
     id="path3143"
     d="m 748,975 0,-77 77,0 77,0 0,77 0,77 -77,0 -77,0 0,-77 z"
     style="fill:#000000" /><path
     style="fill:#000000"
     d="m 1048,675 0,-77 77,0 77,0 0,77 0,77 -77,0 -77,0 0,-77 z"
     id="path3145"
     inkscape:connector-curvature="0" /><path
     inkscape:connector-curvature="0"
     id="path3147"
     d="m 898,825 0,-77 77,0 77,0 0,77 0,77 -77,0 -77,0 0,-77 z"
     style="fill:#000000" /><path
     style="fill:#000000"
     d="m 1198,525 0,-77 77,0 77,0 0,77 0,77 -77,0 -77,0 0,-77 z"
     id="path3149"
     inkscape:connector-curvature="0" /><path
     style="fill:#000000"
     d="m 298,227 0,-77 77,0 77,0 0,77 0,77 -77,0 -77,0 0,-77 z"
     id="path3151"
     inkscape:connector-curvature="0" /><path
     inkscape:connector-curvature="0"
     id="path3153"
     d="m 148,377 0,-77 77,0 77,0 0,77 0,77 -77,0 -77,0 0,-77 z"
     style="fill:#000000" /><path
     style="fill:#000000"
     d="m 298,825 0,-77 77,0 77,0 0,77 0,77 -77,0 -77,0 0,-77 z"
     id="path3159"
     inkscape:connector-curvature="0" /><path
     inkscape:connector-curvature="0"
     id="path3161"
     d="m 148,975 0,-77 77,0 77,0 0,77 0,77 -77,0 -77,0 0,-77 z"
     style="fill:#000000" /><path
     style="fill:#000000"
     d="m 448,675 0,-77 77,0 77,0 0,77 0,77 -77,0 -77,0 0,-77 z"
     id="path3163"
     inkscape:connector-curvature="0" /><path
     style="fill:#000000"
     d="m 598,525 0,-77 77,0 77,0 0,77 0,77 -77,0 -77,0 0,-77 z"
     id="path3165"
     inkscape:connector-curvature="0" /><path
     style="fill:#000000"
     d="m 1198,1125 0,-77 77,0 77,0 0,77 0,77 -77,0 -77,0 0,-77 z"
     id="path3167"
     inkscape:connector-curvature="0" /><path
     inkscape:connector-curvature="0"
     id="path3169"
     d="m 1048,1275 0,-77 77,0 77,0 0,77 0,77 -77,0 -77,0 0,-77 z"
     style="fill:#000000" /><path
     style="fill:#000000"
     d="m 898,1125 0,-77 77,0 77,0 0,77 0,77 -77,0 -77,0 0,-77 z"
     id="path3171"
     inkscape:connector-curvature="0" /><path
     inkscape:connector-curvature="0"
     id="path3173"
     d="m 748,1275 0,-77 77,0 77,0 0,77 0,77 -77,0 -77,0 0,-77 z"
     style="fill:#000000" /><path
     style="fill:#000000"
     d="m 1048,975 0,-77 77,0 77,0 0,77 0,77 -77,0 -77,0 0,-77 z"
     id="path3175"
     inkscape:connector-curvature="0" /><path
     style="fill:#000000"
     d="m 1198,825 0,-77 77,0 77,0 0,77 0,77 -77,0 -77,0 0,-77 z"
     id="path3177"
     inkscape:connector-curvature="0" /><path
     id="rect3179"
     d="m 145,145 0,1210 1210,0 0,-1210 -1210,0 z m 7,7 1196,0 0,1196 -1196,0 0,-1196 z"
     style="fill:#000000"
     inkscape:connector-curvature="0" /><text
     sodipodi:linespacing="125%"
     id="text3330"
     y="101.24415"
     x="197.13867"
     style="font-size:40px;font-style:normal;font-weight:normal;line-height:125%;letter-spacing:0px;word-spacing:0px;fill:#000000;fill-opacity:1;stroke:none;font-family:Sans"
     xml:space="preserve"><tspan
       style="font-size:72px;font-weight:bold;-inkscape-font-specification:Sans Bold"
       y="101.24415"
       x="197.13867"
       id="tspan3332"
       sodipodi:role="line">A</tspan></text>
<text
     sodipodi:linespacing="125%"
     id="text3334"
     y="101.24415"
     x="346.78711"
     style="font-size:40px;font-style:normal;font-weight:normal;line-height:125%;letter-spacing:0px;word-spacing:0px;fill:#000000;fill-opacity:1;stroke:none;font-family:Sans"
     xml:space="preserve"><tspan
       style="font-size:72px;font-weight:bold;-inkscape-font-specification:Sans Bold"
       y="101.24415"
       x="346.78711"
       id="tspan3336"
       sodipodi:role="line">B</tspan></text>
<text
     sodipodi:linespacing="125%"
     id="text3338"
     y="101.20898"
     x="499.08984"
     style="font-size:40px;font-style:normal;font-weight:normal;line-height:125%;letter-spacing:0px;word-spacing:0px;fill:#000000;fill-opacity:1;stroke:none;font-family:Sans"
     xml:space="preserve"><tspan
       style="font-size:72px;font-weight:bold;-inkscape-font-specification:Sans Bold"
       y="101.20898"
       x="499.08984"
       id="tspan3340"
       sodipodi:role="line">C</tspan></text>
<text
     sodipodi:linespacing="125%"
     id="text3342"
     y="101.24415"
     x="643.69336"
     style="font-size:40px;font-style:normal;font-weight:normal;line-height:125%;letter-spacing:0px;word-spacing:0px;fill:#000000;fill-opacity:1;stroke:none;font-family:Sans"
     xml:space="preserve"><tspan
       style="font-size:72px;font-weight:bold;-inkscape-font-specification:Sans Bold"
       y="101.24415"
       x="643.69336"
       id="tspan3344"
       sodipodi:role="line">D</tspan></text>
<text
     sodipodi:linespacing="125%"
     id="text3346"
     y="101.24415"
     x="799.74023"
     style="font-size:40px;font-style:normal;font-weight:normal;line-height:125%;letter-spacing:0px;word-spacing:0px;fill:#000000;fill-opacity:1;stroke:none;font-family:Sans"
     xml:space="preserve"><tspan
       style="font-size:72px;font-weight:bold;-inkscape-font-specification:Sans Bold"
       y="101.24415"
       x="799.74023"
       id="tspan3348"
       sodipodi:role="line">E</tspan></text>
<text
     sodipodi:linespacing="125%"
     id="text3350"
     y="101.24415"
     x="950.12695"
     style="font-size:40px;font-style:normal;font-weight:normal;line-height:125%;letter-spacing:0px;word-spacing:0px;fill:#000000;fill-opacity:1;stroke:none;font-family:Sans"
     xml:space="preserve"><tspan
       style="font-size:72px;font-weight:bold;-inkscape-font-specification:Sans Bold"
       y="101.24415"
       x="950.12695"
       id="tspan3352"
       sodipodi:role="line">F</tspan></text>
<text
     sodipodi:linespacing="125%"
     id="text3354"
     y="101.20898"
     x="1096.3125"
     style="font-size:40px;font-style:normal;font-weight:normal;line-height:125%;letter-spacing:0px;word-spacing:0px;fill:#000000;fill-opacity:1;stroke:none;font-family:Sans"
     xml:space="preserve"><tspan
       style="font-size:72px;font-weight:bold;-inkscape-font-specification:Sans Bold"
       y="101.20898"
       x="1096.3125"
       id="tspan3356"
       sodipodi:role="line">G</tspan></text>
<text
     sodipodi:linespacing="125%"
     id="text3358"
     y="101.24415"
     x="1244.8711"
     style="font-size:40px;font-style:normal;font-weight:normal;line-height:125%;letter-spacing:0px;word-spacing:0px;fill:#000000;fill-opacity:1;stroke:none;font-family:Sans"
     xml:space="preserve"><tspan
       style="font-size:72px;font-weight:bold;-inkscape-font-specification:Sans Bold"
       y="101.24415"
       x="1244.8711"
       id="tspan3360"
       sodipodi:role="line">H</tspan></text>
<text
     sodipodi:linespacing="125%"
     id="text3362"
     y="1301.2441"
     x="48.369141"
     style="font-size:40px;font-style:normal;font-weight:normal;line-height:125%;letter-spacing:0px;word-spacing:0px;fill:#000000;fill-opacity:1;stroke:none;font-family:Sans"
     xml:space="preserve"><tspan
       style="font-size:72px;font-weight:bold;-inkscape-font-specification:Sans Bold"
       y="1301.2441"
       x="48.369141"
       id="tspan3364"
       sodipodi:role="line">1</tspan></text>
<text
     sodipodi:linespacing="125%"
     id="text3366"
     y="1151.7188"
     x="50.232422"
     style="font-size:40px;font-style:normal;font-weight:normal;line-height:125%;letter-spacing:0px;word-spacing:0px;fill:#000000;fill-opacity:1;stroke:none;font-family:Sans"
     xml:space="preserve"><tspan
       style="font-size:72px;font-weight:bold;-inkscape-font-specification:Sans Bold"
       y="1151.7188"
       x="50.232422"
       id="tspan3368"
       sodipodi:role="line">2</tspan></text>
<text
     sodipodi:linespacing="125%"
     id="text3370"
     y="1001.209"
     x="50.408203"
     style="font-size:40px;font-style:normal;font-weight:normal;line-height:125%;letter-spacing:0px;word-spacing:0px;fill:#000000;fill-opacity:1;stroke:none;font-family:Sans"
     xml:space="preserve"><tspan
       style="font-size:72px;font-weight:bold;-inkscape-font-specification:Sans Bold"
       y="1001.209"
       x="50.408203"
       id="tspan3372"
       sodipodi:role="line">3</tspan></text>
<text
     sodipodi:linespacing="125%"
     id="text3374"
     y="851.24414"
     x="49.986328"
     style="font-size:40px;font-style:normal;font-weight:normal;line-height:125%;letter-spacing:0px;word-spacing:0px;fill:#000000;fill-opacity:1;stroke:none;font-family:Sans"
     xml:space="preserve"><tspan
       style="font-size:72px;font-weight:bold;-inkscape-font-specification:Sans Bold"
       y="851.24414"
       x="49.986328"
       id="tspan3376"
       sodipodi:role="line">4</tspan></text>
<text
     sodipodi:linespacing="125%"
     id="text3378"
     y="700.73438"
     x="49.6875"
     style="font-size:40px;font-style:normal;font-weight:normal;line-height:125%;letter-spacing:0px;word-spacing:0px;fill:#000000;fill-opacity:1;stroke:none;font-family:Sans"
     xml:space="preserve"><tspan
       style="font-size:72px;font-weight:bold;-inkscape-font-specification:Sans Bold"
       y="700.73438"
       x="49.6875"
       id="tspan3380"
       sodipodi:role="line">5</tspan></text>
<text
     sodipodi:linespacing="125%"
     id="text3382"
     y="551.17383"
     x="49.652344"
     style="font-size:40px;font-style:normal;font-weight:normal;line-height:125%;letter-spacing:0px;word-spacing:0px;fill:#000000;fill-opacity:1;stroke:none;font-family:Sans"
     xml:space="preserve"><tspan
       style="font-size:72px;font-weight:bold;-inkscape-font-specification:Sans Bold"
       y="551.17383"
       x="49.652344"
       id="tspan3384"
       sodipodi:role="line">6</tspan></text>
<text
     sodipodi:linespacing="125%"
     id="text3386"
     y="401.24414"
     x="50.408203"
     style="font-size:40px;font-style:normal;font-weight:normal;line-height:125%;letter-spacing:0px;word-spacing:0px;fill:#000000;fill-opacity:1;stroke:none;font-family:Sans"
     xml:space="preserve"><tspan
       style="font-size:72px;font-weight:bold;-inkscape-font-specification:Sans Bold"
       y="401.24414"
       x="50.408203"
       id="tspan3388"
       sodipodi:role="line">7</tspan></text>
<text
     sodipodi:linespacing="125%"
     id="text3390"
     y="251.20898"
     x="49.986328"
     style="font-size:40px;font-style:normal;font-weight:normal;line-height:125%;letter-spacing:0px;word-spacing:0px;fill:#000000;fill-opacity:1;stroke:none;font-family:Sans"
     xml:space="preserve"><tspan
       style="font-size:72px;font-weight:bold;-inkscape-font-specification:Sans Bold"
       y="251.20898"
       x="49.986328"
       id="tspan3392"
       sodipodi:role="line">8</tspan></text>
<text
     xml:space="preserve"
     style="font-size:40px;font-style:normal;font-weight:normal;line-height:125%;letter-spacing:0px;word-spacing:0px;fill:#000000;fill-opacity:1;stroke:none;font-family:Sans"
     x="197.13867"
     y="1451.2441"
     id="text3429"
     sodipodi:linespacing="125%"><tspan
       sodipodi:role="line"
       id="tspan3431"
       x="197.13867"
       y="1451.2441"
       style="font-size:72px;font-weight:bold;-inkscape-font-specification:Sans Bold">A</tspan></text>
<text
     xml:space="preserve"
     style="font-size:40px;font-style:normal;font-weight:normal;line-height:125%;letter-spacing:0px;word-spacing:0px;fill:#000000;fill-opacity:1;stroke:none;font-family:Sans"
     x="346.78711"
     y="1451.2441"
     id="text3534"
     sodipodi:linespacing="125%"><tspan
       sodipodi:role="line"
       id="tspan3536"
       x="346.78711"
       y="1451.2441"
       style="font-size:72px;font-weight:bold;-inkscape-font-specification:Sans Bold">B</tspan></text>
<text
     xml:space="preserve"
     style="font-size:40px;font-style:normal;font-weight:normal;line-height:125%;letter-spacing:0px;word-spacing:0px;fill:#000000;fill-opacity:1;stroke:none;font-family:Sans"
     x="499.08984"
     y="1451.209"
     id="text3538"
     sodipodi:linespacing="125%"><tspan
       sodipodi:role="line"
       id="tspan3540"
       x="499.08984"
       y="1451.209"
       style="font-size:72px;font-weight:bold;-inkscape-font-specification:Sans Bold">C</tspan></text>
<text
     xml:space="preserve"
     style="font-size:40px;font-style:normal;font-weight:normal;line-height:125%;letter-spacing:0px;word-spacing:0px;fill:#000000;fill-opacity:1;stroke:none;font-family:Sans"
     x="643.69336"
     y="1451.2441"
     id="text3546"
     sodipodi:linespacing="125%"><tspan
       sodipodi:role="line"
       id="tspan3548"
       x="643.69336"
       y="1451.2441"
       style="font-size:72px;font-weight:bold;-inkscape-font-specification:Sans Bold">D</tspan></text>
<text
     xml:space="preserve"
     style="font-size:40px;font-style:normal;font-weight:normal;line-height:125%;letter-spacing:0px;word-spacing:0px;fill:#000000;fill-opacity:1;stroke:none;font-family:Sans"
     x="799.74023"
     y="1451.2441"
     id="text3550"
     sodipodi:linespacing="125%"><tspan
       sodipodi:role="line"
       id="tspan3552"
       x="799.74023"
       y="1451.2441"
       style="font-size:72px;font-weight:bold;-inkscape-font-specification:Sans Bold">E</tspan></text>
<text
     xml:space="preserve"
     style="font-size:40px;font-style:normal;font-weight:normal;line-height:125%;letter-spacing:0px;word-spacing:0px;fill:#000000;fill-opacity:1;stroke:none;font-family:Sans"
     x="950.12695"
     y="1451.2441"
     id="text3554"
     sodipodi:linespacing="125%"><tspan
       sodipodi:role="line"
       id="tspan3556"
       x="950.12695"
       y="1451.2441"
       style="font-size:72px;font-weight:bold;-inkscape-font-specification:Sans Bold">F</tspan></text>
<text
     xml:space="preserve"
     style="font-size:40px;font-style:normal;font-weight:normal;line-height:125%;letter-spacing:0px;word-spacing:0px;fill:#000000;fill-opacity:1;stroke:none;font-family:Sans"
     x="1096.3125"
     y="1451.209"
     id="text3558"
     sodipodi:linespacing="125%"><tspan
       sodipodi:role="line"
       id="tspan3560"
       x="1096.3125"
       y="1451.209"
       style="font-size:72px;font-weight:bold;-inkscape-font-specification:Sans Bold">G</tspan></text>
<text
     xml:space="preserve"
     style="font-size:40px;font-style:normal;font-weight:normal;line-height:125%;letter-spacing:0px;word-spacing:0px;fill:#000000;fill-opacity:1;stroke:none;font-family:Sans"
     x="1244.8711"
     y="1451.2441"
     id="text3562"
     sodipodi:linespacing="125%"><tspan
       sodipodi:role="line"
       id="tspan3564"
       x="1244.8711"
       y="1451.2441"
       style="font-size:72px;font-weight:bold;-inkscape-font-specification:Sans Bold">H</tspan></text>
<text
     xml:space="preserve"
     style="font-size:40px;font-style:normal;font-weight:normal;line-height:125%;letter-spacing:0px;word-spacing:0px;fill:#000000;fill-opacity:1;stroke:none;font-family:Sans"
     x="1398.3691"
     y="1301.2441"
     id="text3566"
     sodipodi:linespacing="125%"><tspan
       sodipodi:role="line"
       id="tspan3568"
       x="1398.3691"
       y="1301.2441"
       style="font-size:72px;font-weight:bold;-inkscape-font-specification:Sans Bold">1</tspan></text>
<text
     xml:space="preserve"
     style="font-size:40px;font-style:normal;font-weight:normal;line-height:125%;letter-spacing:0px;word-spacing:0px;fill:#000000;fill-opacity:1;stroke:none;font-family:Sans"
     x="1400.2324"
     y="1151.7188"
     id="text3570"
     sodipodi:linespacing="125%"><tspan
       sodipodi:role="line"
       id="tspan3572"
       x="1400.2324"
       y="1151.7188"
       style="font-size:72px;font-weight:bold;-inkscape-font-specification:Sans Bold">2</tspan></text>
<text
     xml:space="preserve"
     style="font-size:40px;font-style:normal;font-weight:normal;line-height:125%;letter-spacing:0px;word-spacing:0px;fill:#000000;fill-opacity:1;stroke:none;font-family:Sans"
     x="1400.4082"
     y="1001.209"
     id="text3574"
     sodipodi:linespacing="125%"><tspan
       sodipodi:role="line"
       id="tspan3576"
       x="1400.4082"
       y="1001.209"
       style="font-size:72px;font-weight:bold;-inkscape-font-specification:Sans Bold">3</tspan></text>
<text
     xml:space="preserve"
     style="font-size:40px;font-style:normal;font-weight:normal;line-height:125%;letter-spacing:0px;word-spacing:0px;fill:#000000;fill-opacity:1;stroke:none;font-family:Sans"
     x="1399.9863"
     y="851.24414"
     id="text3578"
     sodipodi:linespacing="125%"><tspan
       sodipodi:role="line"
       id="tspan3580"
       x="1399.9863"
       y="851.24414"
       style="font-size:72px;font-weight:bold;-inkscape-font-specification:Sans Bold">4</tspan></text>
<text
     xml:space="preserve"
     style="font-size:40px;font-style:normal;font-weight:normal;line-height:125%;letter-spacing:0px;word-spacing:0px;fill:#000000;fill-opacity:1;stroke:none;font-family:Sans"
     x="1399.6875"
     y="700.73438"
     id="text3582"
     sodipodi:linespacing="125%"><tspan
       sodipodi:role="line"
       id="tspan3584"
       x="1399.6875"
       y="700.73438"
       style="font-size:72px;font-weight:bold;-inkscape-font-specification:Sans Bold">5</tspan></text>
<text
     xml:space="preserve"
     style="font-size:40px;font-style:normal;font-weight:normal;line-height:125%;letter-spacing:0px;word-spacing:0px;fill:#000000;fill-opacity:1;stroke:none;font-family:Sans"
     x="1399.6523"
     y="551.17383"
     id="text3586"
     sodipodi:linespacing="125%"><tspan
       sodipodi:role="line"
       id="tspan3588"
       x="1399.6523"
       y="551.17383"
       style="font-size:72px;font-weight:bold;-inkscape-font-specification:Sans Bold">6</tspan></text>
<text
     xml:space="preserve"
     style="font-size:40px;font-style:normal;font-weight:normal;line-height:125%;letter-spacing:0px;word-spacing:0px;fill:#000000;fill-opacity:1;stroke:none;font-family:Sans"
     x="1400.4082"
     y="401.24414"
     id="text3590"
     sodipodi:linespacing="125%"><tspan
       sodipodi:role="line"
       id="tspan3592"
       x="1400.4082"
       y="401.24414"
       style="font-size:72px;font-weight:bold;-inkscape-font-specification:Sans Bold">7</tspan></text>
<text
     xml:space="preserve"
     style="font-size:40px;font-style:normal;font-weight:normal;line-height:125%;letter-spacing:0px;word-spacing:0px;fill:#000000;fill-opacity:1;stroke:none;font-family:Sans"
     x="1399.9863"
     y="251.20898"
     id="text3594"
     sodipodi:linespacing="125%"><tspan
       sodipodi:role="line"
       id="tspan3596"
       x="1399.9863"
       y="251.20898"
       style="font-size:72px;font-weight:bold;-inkscape-font-specification:Sans Bold">8</tspan></text>
</g><flowRoot
   xml:space="preserve"
   id="flowRoot3868"
   style="fill:black;stroke:none;stroke-opacity:1;stroke-width:1px;stroke-linejoin:miter;stroke-linecap:butt;fill-opacity:1;font-family:Sans;font-style:normal;font-weight:normal;font-size:40px;line-height:125%;letter-spacing:0px;word-spacing:0px"><flowRegion
     id="flowRegion3870"><rect
       id="rect3872"
       width="743.87634"
       height="890.95453"
       x="1530.1791"
       y="628.84442" /></flowRegion><flowPara
     id="flowPara3874"></flowPara></flowRoot></svg>