<?xml version="1.0" encoding="UTF-8" standalone="no"?>
<!-- Generator: Adobe Illustrator 14.0.0, SVG Export Plug-In . SVG Version: 6.00 Build 43363)  -->

<svg
   xmlns:dc="http://purl.org/dc/elements/1.1/"
   xmlns:cc="http://creativecommons.org/ns#"
   xmlns:rdf="http://www.w3.org/1999/02/22-rdf-syntax-ns#"
   xmlns:svg="http://www.w3.org/2000/svg"
   xmlns="http://www.w3.org/2000/svg"
   xmlns:xlink="http://www.w3.org/1999/xlink"
   xmlns:sodipodi="http://sodipodi.sourceforge.net/DTD/sodipodi-0.dtd"
   xmlns:inkscape="http://www.inkscape.org/namespaces/inkscape"
   version="1.1"
   id="svg2"
   x="0px"
   y="0px"
   width="1500"
   height="1500"
   viewBox="0 0 1500 1500"
   enable-background="new 0 0 1450 1450"
   xml:space="preserve"
   inkscape:version="0.48.3.1 r9886"
   sodipodi:docname="board2.svg"
   inkscape:export-filename="/home/adriano/Desktop/b2.png"
   inkscape:export-xdpi="90"
   inkscape:export-ydpi="90"><metadata
   id="metadata299"><rdf:RDF><cc:Work
       rdf:about=""><dc:format>image/svg+xml</dc:format><dc:type
         rdf:resource="http://purl.org/dc/dcmitype/StillImage" /><dc:title></dc:title></cc:Work></rdf:RDF></metadata><defs
   id="defs297" /><sodipodi:namedview
   pagecolor="#ffffff"
   bordercolor="#666666"
   borderopacity="1"
   objecttolerance="10"
   gridtolerance="10"
   guidetolerance="10"
   inkscape:pageopacity="0"
   inkscape:pageshadow="2"
   inkscape:window-width="1855"
   inkscape:window-height="1056"
   id="namedview295"
   showgrid="false"
   inkscape:zoom="0.5"
   inkscape:cx="123.77007"
   inkscape:cy="924.34054"
   inkscape:window-x="65"
   inkscape:window-y="24"
   inkscape:window-maximized="1"
   inkscape:current-layer="svg2" />

































<text
   xml:space="preserve"
   style="font-size:40px;font-style:normal;font-weight:normal;line-height:125%;letter-spacing:0px;word-spacing:0px;fill:#000000;fill-opacity:1;stroke:none;font-family:Sans"
   x="-939.03778"
   y="354.48703"
   id="text3326"
   sodipodi:linespacing="125%"><tspan
     sodipodi:role="line"
     id="tspan3328"
     x="-939.03778"
     y="354.48703" /></text>

<g
   id="g3447"><image
     width="1000"
     height="666.66669"
     xlink:href="file:///home/adriano/Desktop/texture-dark-green.jpg"
     id="image3112"
     x="250"
     y="416.66666" /><image
     width="420"
     height="420"
     xlink:href="file:///home/adriano/Desktop/textura_parede_rustica_luis-prado.jpg"
     id="image3123"
     x="540"
     y="540" /><g
     transform="matrix(0.35,0,0,0.35,487.5,487.5)"
     id="g3878"><path
   inkscape:connector-curvature="0"
   id="path3081"
   d="m 298,1125 0,-77 77,0 77,0 0,77 0,77 -77,0 -77,0 0,-77 z"
   style="fill:#000000" /><path
   style="fill:#000000"
   d="m 148,1275 0,-77 77,0 77,0 0,77 0,77 -77,0 -77,0 0,-77 z"
   id="path3097"
   inkscape:connector-curvature="0" /><path
   inkscape:connector-curvature="0"
   id="path3099"
   d="m 448,975 0,-77 77,0 77,0 0,77 0,77 -77,0 -77,0 0,-77 z"
   style="fill:#000000" /><path
   style="fill:#000000"
   d="m 748,675 0,-77 77,0 77,0 0,77 0,77 -77,0 -77,0 0,-77 z"
   id="path3101"
   inkscape:connector-curvature="0" /><path
   inkscape:connector-curvature="0"
   id="path3103"
   d="m 598,825 0,-77 77,0 77,0 0,77 0,77 -77,0 -77,0 0,-77 z"
   style="fill:#000000" /><path
   style="fill:#000000"
   d="m 898,525 0,-77 77,0 77,0 0,77 0,77 -77,0 -77,0 0,-77 z"
   id="path3105"
   inkscape:connector-curvature="0" /><path
   inkscape:connector-curvature="0"
   id="path3107"
   d="m 1196,227 0,-77 77,0 77,0 0,77 0,77 -77,0 -77,0 0,-77 z"
   style="fill:#000000" /><path
   style="fill:#000000"
   d="m 1048,375 0,-77 77,0 77,0 0,77 0,77 -77,0 -77,0 0,-77 z"
   id="path3109"
   inkscape:connector-curvature="0" /><path
   style="fill:#000000"
   d="m 298,525 0,-77 77,0 77,0 0,77 0,77 -77,0 -77,0 0,-77 z"
   id="path3127"
   inkscape:connector-curvature="0" /><path
   inkscape:connector-curvature="0"
   id="path3129"
   d="m 148,675 0,-77 77,0 77,0 0,77 0,77 -77,0 -77,0 0,-77 z"
   style="fill:#000000" /><path
   style="fill:#000000"
   d="m 448,375 0,-77 77,0 77,0 0,77 0,77 -77,0 -77,0 0,-77 z"
   id="path3131"
   inkscape:connector-curvature="0" /><path
   inkscape:connector-curvature="0"
   id="path3133"
   d="m 748,375 0,-77 77,0 77,0 0,77 0,77 -77,0 -77,0 0,-77 z"
   style="fill:#000000" /><path
   style="fill:#000000"
   d="m 598,225 0,-77 77,0 77,0 0,77 0,77 -77,0 -77,0 0,-77 z"
   id="path3135"
   inkscape:connector-curvature="0" /><path
   inkscape:connector-curvature="0"
   id="path3137"
   d="m 898,225 0,-77 77,0 77,0 0,77 0,77 -77,0 -77,0 0,-77 z"
   style="fill:#000000" /><path
   style="fill:#000000"
   d="m 598,1125 0,-77 77,0 77,0 0,77 0,77 -77,0 -77,0 0,-77 z"
   id="path3139"
   inkscape:connector-curvature="0" /><path
   inkscape:connector-curvature="0"
   id="path3141"
   d="m 448,1275 0,-77 77,0 77,0 0,77 0,77 -77,0 -77,0 0,-77 z"
   style="fill:#000000" /><path
   style="fill:#000000"
   d="m 748,975 0,-77 77,0 77,0 0,77 0,77 -77,0 -77,0 0,-77 z"
   id="path3143"
   inkscape:connector-curvature="0" /><path
   inkscape:connector-curvature="0"
   id="path3145"
   d="m 1048,675 0,-77 77,0 77,0 0,77 0,77 -77,0 -77,0 0,-77 z"
   style="fill:#000000" /><path
   style="fill:#000000"
   d="m 898,825 0,-77 77,0 77,0 0,77 0,77 -77,0 -77,0 0,-77 z"
   id="path3147"
   inkscape:connector-curvature="0" /><path
   inkscape:connector-curvature="0"
   id="path3149"
   d="m 1198,525 0,-77 77,0 77,0 0,77 0,77 -77,0 -77,0 0,-77 z"
   style="fill:#000000" /><path
   inkscape:connector-curvature="0"
   id="path3151"
   d="m 298,227 0,-77 77,0 77,0 0,77 0,77 -77,0 -77,0 0,-77 z"
   style="fill:#000000" /><path
   style="fill:#000000"
   d="m 148,377 0,-77 77,0 77,0 0,77 0,77 -77,0 -77,0 0,-77 z"
   id="path3153"
   inkscape:connector-curvature="0" /><path
   inkscape:connector-curvature="0"
   id="path3159"
   d="m 298,825 0,-77 77,0 77,0 0,77 0,77 -77,0 -77,0 0,-77 z"
   style="fill:#000000" /><path
   style="fill:#000000"
   d="m 148,975 0,-77 77,0 77,0 0,77 0,77 -77,0 -77,0 0,-77 z"
   id="path3161"
   inkscape:connector-curvature="0" /><path
   inkscape:connector-curvature="0"
   id="path3163"
   d="m 448,675 0,-77 77,0 77,0 0,77 0,77 -77,0 -77,0 0,-77 z"
   style="fill:#000000" /><path
   inkscape:connector-curvature="0"
   id="path3165"
   d="m 598,525 0,-77 77,0 77,0 0,77 0,77 -77,0 -77,0 0,-77 z"
   style="fill:#000000" /><path
   inkscape:connector-curvature="0"
   id="path3167"
   d="m 1198,1125 0,-77 77,0 77,0 0,77 0,77 -77,0 -77,0 0,-77 z"
   style="fill:#000000" /><path
   style="fill:#000000"
   d="m 1048,1275 0,-77 77,0 77,0 0,77 0,77 -77,0 -77,0 0,-77 z"
   id="path3169"
   inkscape:connector-curvature="0" /><path
   inkscape:connector-curvature="0"
   id="path3171"
   d="m 898,1125 0,-77 77,0 77,0 0,77 0,77 -77,0 -77,0 0,-77 z"
   style="fill:#000000" /><path
   style="fill:#000000"
   d="m 748,1275 0,-77 77,0 77,0 0,77 0,77 -77,0 -77,0 0,-77 z"
   id="path3173"
   inkscape:connector-curvature="0" /><path
   inkscape:connector-curvature="0"
   id="path3175"
   d="m 1048,975 0,-77 77,0 77,0 0,77 0,77 -77,0 -77,0 0,-77 z"
   style="fill:#000000" /><path
   inkscape:connector-curvature="0"
   id="path3177"
   d="m 1198,825 0,-77 77,0 77,0 0,77 0,77 -77,0 -77,0 0,-77 z"
   style="fill:#000000" /><path
   inkscape:connector-curvature="0"
   style="fill:#000000"
   d="m 145,145 0,1210 1210,0 0,-1210 -1210,0 z m 7,7 1196,0 0,1196 -1196,0 0,-1196 z"
   id="rect3179" /><text
   xml:space="preserve"
   style="font-size:40px;font-style:normal;font-weight:normal;line-height:125%;letter-spacing:0px;word-spacing:0px;fill:#000000;fill-opacity:1;stroke:none;font-family:Sans"
   x="197.13867"
   y="101.24415"
   id="text3330"
   sodipodi:linespacing="125%"><tspan
     sodipodi:role="line"
     id="tspan3332"
     x="197.13867"
     y="101.24415"
     style="font-size:72px;font-weight:bold;-inkscape-font-specification:Sans Bold">A</tspan></text>

<text
   xml:space="preserve"
   style="font-size:40px;font-style:normal;font-weight:normal;line-height:125%;letter-spacing:0px;word-spacing:0px;fill:#000000;fill-opacity:1;stroke:none;font-family:Sans"
   x="346.78711"
   y="101.24415"
   id="text3334"
   sodipodi:linespacing="125%"><tspan
     sodipodi:role="line"
     id="tspan3336"
     x="346.78711"
     y="101.24415"
     style="font-size:72px;font-weight:bold;-inkscape-font-specification:Sans Bold">B</tspan></text>

<text
   xml:space="preserve"
   style="font-size:40px;font-style:normal;font-weight:normal;line-height:125%;letter-spacing:0px;word-spacing:0px;fill:#000000;fill-opacity:1;stroke:none;font-family:Sans"
   x="499.08984"
   y="101.20898"
   id="text3338"
   sodipodi:linespacing="125%"><tspan
     sodipodi:role="line"
     id="tspan3340"
     x="499.08984"
     y="101.20898"
     style="font-size:72px;font-weight:bold;-inkscape-font-specification:Sans Bold">C</tspan></text>

<text
   xml:space="preserve"
   style="font-size:40px;font-style:normal;font-weight:normal;line-height:125%;letter-spacing:0px;word-spacing:0px;fill:#000000;fill-opacity:1;stroke:none;font-family:Sans"
   x="643.69336"
   y="101.24415"
   id="text3342"
   sodipodi:linespacing="125%"><tspan
     sodipodi:role="line"
     id="tspan3344"
     x="643.69336"
     y="101.24415"
     style="font-size:72px;font-weight:bold;-inkscape-font-specification:Sans Bold">D</tspan></text>

<text
   xml:space="preserve"
   style="font-size:40px;font-style:normal;font-weight:normal;line-height:125%;letter-spacing:0px;word-spacing:0px;fill:#000000;fill-opacity:1;stroke:none;font-family:Sans"
   x="799.74023"
   y="101.24415"
   id="text3346"
   sodipodi:linespacing="125%"><tspan
     sodipodi:role="line"
     id="tspan3348"
     x="799.74023"
     y="101.24415"
     style="font-size:72px;font-weight:bold;-inkscape-font-specification:Sans Bold">E</tspan></text>

<text
   xml:space="preserve"
   style="font-size:40px;font-style:normal;font-weight:normal;line-height:125%;letter-spacing:0px;word-spacing:0px;fill:#000000;fill-opacity:1;stroke:none;font-family:Sans"
   x="950.12695"
   y="101.24415"
   id="text3350"
   sodipodi:linespacing="125%"><tspan
     sodipodi:role="line"
     id="tspan3352"
     x="950.12695"
     y="101.24415"
     style="font-size:72px;font-weight:bold;-inkscape-font-specification:Sans Bold">F</tspan></text>

<text
   xml:space="preserve"
   style="font-size:40px;font-style:normal;font-weight:normal;line-height:125%;letter-spacing:0px;word-spacing:0px;fill:#000000;fill-opacity:1;stroke:none;font-family:Sans"
   x="1096.3125"
   y="101.20898"
   id="text3354"
   sodipodi:linespacing="125%"><tspan
     sodipodi:role="line"
     id="tspan3356"
     x="1096.3125"
     y="101.20898"
     style="font-size:72px;font-weight:bold;-inkscape-font-specification:Sans Bold">G</tspan></text>

<text
   xml:space="preserve"
   style="font-size:40px;font-style:normal;font-weight:normal;line-height:125%;letter-spacing:0px;word-spacing:0px;fill:#000000;fill-opacity:1;stroke:none;font-family:Sans"
   x="1244.8711"
   y="101.24415"
   id="text3358"
   sodipodi:linespacing="125%"><tspan
     sodipodi:role="line"
     id="tspan3360"
     x="1244.8711"
     y="101.24415"
     style="font-size:72px;font-weight:bold;-inkscape-font-specification:Sans Bold">H</tspan></text>

<text
   xml:space="preserve"
   style="font-size:40px;font-style:normal;font-weight:normal;line-height:125%;letter-spacing:0px;word-spacing:0px;fill:#000000;fill-opacity:1;stroke:none;font-family:Sans"
   x="48.369141"
   y="1301.2441"
   id="text3362"
   sodipodi:linespacing="125%"><tspan
     sodipodi:role="line"
     id="tspan3364"
     x="48.369141"
     y="1301.2441"
     style="font-size:72px;font-weight:bold;-inkscape-font-specification:Sans Bold">1</tspan></text>

<text
   xml:space="preserve"
   style="font-size:40px;font-style:normal;font-weight:normal;line-height:125%;letter-spacing:0px;word-spacing:0px;fill:#000000;fill-opacity:1;stroke:none;font-family:Sans"
   x="50.232422"
   y="1151.7188"
   id="text3366"
   sodipodi:linespacing="125%"><tspan
     sodipodi:role="line"
     id="tspan3368"
     x="50.232422"
     y="1151.7188"
     style="font-size:72px;font-weight:bold;-inkscape-font-specification:Sans Bold">2</tspan></text>

<text
   xml:space="preserve"
   style="font-size:40px;font-style:normal;font-weight:normal;line-height:125%;letter-spacing:0px;word-spacing:0px;fill:#000000;fill-opacity:1;stroke:none;font-family:Sans"
   x="50.408203"
   y="1001.209"
   id="text3370"
   sodipodi:linespacing="125%"><tspan
     sodipodi:role="line"
     id="tspan3372"
     x="50.408203"
     y="1001.209"
     style="font-size:72px;font-weight:bold;-inkscape-font-specification:Sans Bold">3</tspan></text>

<text
   xml:space="preserve"
   style="font-size:40px;font-style:normal;font-weight:normal;line-height:125%;letter-spacing:0px;word-spacing:0px;fill:#000000;fill-opacity:1;stroke:none;font-family:Sans"
   x="49.986328"
   y="851.24414"
   id="text3374"
   sodipodi:linespacing="125%"><tspan
     sodipodi:role="line"
     id="tspan3376"
     x="49.986328"
     y="851.24414"
     style="font-size:72px;font-weight:bold;-inkscape-font-specification:Sans Bold">4</tspan></text>

<text
   xml:space="preserve"
   style="font-size:40px;font-style:normal;font-weight:normal;line-height:125%;letter-spacing:0px;word-spacing:0px;fill:#000000;fill-opacity:1;stroke:none;font-family:Sans"
   x="49.6875"
   y="700.73438"
   id="text3378"
   sodipodi:linespacing="125%"><tspan
     sodipodi:role="line"
     id="tspan3380"
     x="49.6875"
     y="700.73438"
     style="font-size:72px;font-weight:bold;-inkscape-font-specification:Sans Bold">5</tspan></text>

<text
   xml:space="preserve"
   style="font-size:40px;font-style:normal;font-weight:normal;line-height:125%;letter-spacing:0px;word-spacing:0px;fill:#000000;fill-opacity:1;stroke:none;font-family:Sans"
   x="49.652344"
   y="551.17383"
   id="text3382"
   sodipodi:linespacing="125%"><tspan
     sodipodi:role="line"
     id="tspan3384"
     x="49.652344"
     y="551.17383"
     style="font-size:72px;font-weight:bold;-inkscape-font-specification:Sans Bold">6</tspan></text>

<text
   xml:space="preserve"
   style="font-size:40px;font-style:normal;font-weight:normal;line-height:125%;letter-spacing:0px;word-spacing:0px;fill:#000000;fill-opacity:1;stroke:none;font-family:Sans"
   x="50.408203"
   y="401.24414"
   id="text3386"
   sodipodi:linespacing="125%"><tspan
     sodipodi:role="line"
     id="tspan3388"
     x="50.408203"
     y="401.24414"
     style="font-size:72px;font-weight:bold;-inkscape-font-specification:Sans Bold">7</tspan></text>

<text
   xml:space="preserve"
   style="font-size:40px;font-style:normal;font-weight:normal;line-height:125%;letter-spacing:0px;word-spacing:0px;fill:#000000;fill-opacity:1;stroke:none;font-family:Sans"
   x="49.986328"
   y="251.20898"
   id="text3390"
   sodipodi:linespacing="125%"><tspan
     sodipodi:role="line"
     id="tspan3392"
     x="49.986328"
     y="251.20898"
     style="font-size:72px;font-weight:bold;-inkscape-font-specification:Sans Bold">8</tspan></text>

<text
   sodipodi:linespacing="125%"
   id="text3429"
   y="1451.2441"
   x="197.13867"
   style="font-size:40px;font-style:normal;font-weight:normal;line-height:125%;letter-spacing:0px;word-spacing:0px;fill:#000000;fill-opacity:1;stroke:none;font-family:Sans"
   xml:space="preserve"><tspan
     style="font-size:72px;font-weight:bold;-inkscape-font-specification:Sans Bold"
     y="1451.2441"
     x="197.13867"
     id="tspan3431"
     sodipodi:role="line">A</tspan></text>

<text
   sodipodi:linespacing="125%"
   id="text3534"
   y="1451.2441"
   x="346.78711"
   style="font-size:40px;font-style:normal;font-weight:normal;line-height:125%;letter-spacing:0px;word-spacing:0px;fill:#000000;fill-opacity:1;stroke:none;font-family:Sans"
   xml:space="preserve"><tspan
     style="font-size:72px;font-weight:bold;-inkscape-font-specification:Sans Bold"
     y="1451.2441"
     x="346.78711"
     id="tspan3536"
     sodipodi:role="line">B</tspan></text>

<text
   sodipodi:linespacing="125%"
   id="text3538"
   y="1451.209"
   x="499.08984"
   style="font-size:40px;font-style:normal;font-weight:normal;line-height:125%;letter-spacing:0px;word-spacing:0px;fill:#000000;fill-opacity:1;stroke:none;font-family:Sans"
   xml:space="preserve"><tspan
     style="font-size:72px;font-weight:bold;-inkscape-font-specification:Sans Bold"
     y="1451.209"
     x="499.08984"
     id="tspan3540"
     sodipodi:role="line">C</tspan></text>

<text
   sodipodi:linespacing="125%"
   id="text3546"
   y="1451.2441"
   x="643.69336"
   style="font-size:40px;font-style:normal;font-weight:normal;line-height:125%;letter-spacing:0px;word-spacing:0px;fill:#000000;fill-opacity:1;stroke:none;font-family:Sans"
   xml:space="preserve"><tspan
     style="font-size:72px;font-weight:bold;-inkscape-font-specification:Sans Bold"
     y="1451.2441"
     x="643.69336"
     id="tspan3548"
     sodipodi:role="line">D</tspan></text>

<text
   sodipodi:linespacing="125%"
   id="text3550"
   y="1451.2441"
   x="799.74023"
   style="font-size:40px;font-style:normal;font-weight:normal;line-height:125%;letter-spacing:0px;word-spacing:0px;fill:#000000;fill-opacity:1;stroke:none;font-family:Sans"
   xml:space="preserve"><tspan
     style="font-size:72px;font-weight:bold;-inkscape-font-specification:Sans Bold"
     y="1451.2441"
     x="799.74023"
     id="tspan3552"
     sodipodi:role="line">E</tspan></text>

<text
   sodipodi:linespacing="125%"
   id="text3554"
   y="1451.2441"
   x="950.12695"
   style="font-size:40px;font-style:normal;font-weight:normal;line-height:125%;letter-spacing:0px;word-spacing:0px;fill:#000000;fill-opacity:1;stroke:none;font-family:Sans"
   xml:space="preserve"><tspan
     style="font-size:72px;font-weight:bold;-inkscape-font-specification:Sans Bold"
     y="1451.2441"
     x="950.12695"
     id="tspan3556"
     sodipodi:role="line">F</tspan></text>

<text
   sodipodi:linespacing="125%"
   id="text3558"
   y="1451.209"
   x="1096.3125"
   style="font-size:40px;font-style:normal;font-weight:normal;line-height:125%;letter-spacing:0px;word-spacing:0px;fill:#000000;fill-opacity:1;stroke:none;font-family:Sans"
   xml:space="preserve"><tspan
     style="font-size:72px;font-weight:bold;-inkscape-font-specification:Sans Bold"
     y="1451.209"
     x="1096.3125"
     id="tspan3560"
     sodipodi:role="line">G</tspan></text>

<text
   sodipodi:linespacing="125%"
   id="text3562"
   y="1451.2441"
   x="1244.8711"
   style="font-size:40px;font-style:normal;font-weight:normal;line-height:125%;letter-spacing:0px;word-spacing:0px;fill:#000000;fill-opacity:1;stroke:none;font-family:Sans"
   xml:space="preserve"><tspan
     style="font-size:72px;font-weight:bold;-inkscape-font-specification:Sans Bold"
     y="1451.2441"
     x="1244.8711"
     id="tspan3564"
     sodipodi:role="line">H</tspan></text>

<text
   sodipodi:linespacing="125%"
   id="text3566"
   y="1301.2441"
   x="1398.3691"
   style="font-size:40px;font-style:normal;font-weight:normal;line-height:125%;letter-spacing:0px;word-spacing:0px;fill:#000000;fill-opacity:1;stroke:none;font-family:Sans"
   xml:space="preserve"><tspan
     style="font-size:72px;font-weight:bold;-inkscape-font-specification:Sans Bold"
     y="1301.2441"
     x="1398.3691"
     id="tspan3568"
     sodipodi:role="line">1</tspan></text>

<text
   sodipodi:linespacing="125%"
   id="text3570"
   y="1151.7188"
   x="1400.2324"
   style="font-size:40px;font-style:normal;font-weight:normal;line-height:125%;letter-spacing:0px;word-spacing:0px;fill:#000000;fill-opacity:1;stroke:none;font-family:Sans"
   xml:space="preserve"><tspan
     style="font-size:72px;font-weight:bold;-inkscape-font-specification:Sans Bold"
     y="1151.7188"
     x="1400.2324"
     id="tspan3572"
     sodipodi:role="line">2</tspan></text>

<text
   sodipodi:linespacing="125%"
   id="text3574"
   y="1001.209"
   x="1400.4082"
   style="font-size:40px;font-style:normal;font-weight:normal;line-height:125%;letter-spacing:0px;word-spacing:0px;fill:#000000;fill-opacity:1;stroke:none;font-family:Sans"
   xml:space="preserve"><tspan
     style="font-size:72px;font-weight:bold;-inkscape-font-specification:Sans Bold"
     y="1001.209"
     x="1400.4082"
     id="tspan3576"
     sodipodi:role="line">3</tspan></text>

<text
   sodipodi:linespacing="125%"
   id="text3578"
   y="851.24414"
   x="1399.9863"
   style="font-size:40px;font-style:normal;font-weight:normal;line-height:125%;letter-spacing:0px;word-spacing:0px;fill:#000000;fill-opacity:1;stroke:none;font-family:Sans"
   xml:space="preserve"><tspan
     style="font-size:72px;font-weight:bold;-inkscape-font-specification:Sans Bold"
     y="851.24414"
     x="1399.9863"
     id="tspan3580"
     sodipodi:role="line">4</tspan></text>

<text
   sodipodi:linespacing="125%"
   id="text3582"
   y="700.73438"
   x="1399.6875"
   style="font-size:40px;font-style:normal;font-weight:normal;line-height:125%;letter-spacing:0px;word-spacing:0px;fill:#000000;fill-opacity:1;stroke:none;font-family:Sans"
   xml:space="preserve"><tspan
     style="font-size:72px;font-weight:bold;-inkscape-font-specification:Sans Bold"
     y="700.73438"
     x="1399.6875"
     id="tspan3584"
     sodipodi:role="line">5</tspan></text>

<text
   sodipodi:linespacing="125%"
   id="text3586"
   y="551.17383"
   x="1399.6523"
   style="font-size:40px;font-style:normal;font-weight:normal;line-height:125%;letter-spacing:0px;word-spacing:0px;fill:#000000;fill-opacity:1;stroke:none;font-family:Sans"
   xml:space="preserve"><tspan
     style="font-size:72px;font-weight:bold;-inkscape-font-specification:Sans Bold"
     y="551.17383"
     x="1399.6523"
     id="tspan3588"
     sodipodi:role="line">6</tspan></text>

<text
   sodipodi:linespacing="125%"
   id="text3590"
   y="401.24414"
   x="1400.4082"
   style="font-size:40px;font-style:normal;font-weight:normal;line-height:125%;letter-spacing:0px;word-spacing:0px;fill:#000000;fill-opacity:1;stroke:none;font-family:Sans"
   xml:space="preserve"><tspan
     style="font-size:72px;font-weight:bold;-inkscape-font-specification:Sans Bold"
     y="401.24414"
     x="1400.4082"
     id="tspan3592"
     sodipodi:role="line">7</tspan></text>

<text
   sodipodi:linespacing="125%"
   id="text3594"
   y="251.20898"
   x="1399.9863"
   style="font-size:40px;font-style:normal;font-weight:normal;line-height:125%;letter-spacing:0px;word-spacing:0px;fill:#000000;fill-opacity:1;stroke:none;font-family:Sans"
   xml:space="preserve"><tspan
     style="font-size:72px;font-weight:bold;-inkscape-font-specification:Sans Bold"
     y="251.20898"
     x="1399.9863"
     id="tspan3596"
     sodipodi:role="line">8</tspan></text>

</g></g><flowRoot
   xml:space="preserve"
   id="flowRoot3868"
   style="fill:black;stroke:none;stroke-opacity:1;stroke-width:1px;stroke-linejoin:miter;stroke-linecap:butt;fill-opacity:1;font-family:Sans;font-style:normal;font-weight:normal;font-size:40px;line-height:125%;letter-spacing:0px;word-spacing:0px"><flowRegion
     id="flowRegion3870"><rect
       id="rect3872"
       width="743.87634"
       height="890.95453"
       x="1530.1791"
       y="628.84442" /></flowRegion><flowPara
     id="flowPara3874" /></flowRoot></svg>