<?xml version="1.0" encoding="UTF-8" standalone="no"?>
<!-- Created with Inkscape (http://www.inkscape.org/) -->

<svg
   xmlns:dc="http://purl.org/dc/elements/1.1/"
   xmlns:cc="http://creativecommons.org/ns#"
   xmlns:rdf="http://www.w3.org/1999/02/22-rdf-syntax-ns#"
   xmlns:svg="http://www.w3.org/2000/svg"
   xmlns="http://www.w3.org/2000/svg"
   xmlns:sodipodi="http://sodipodi.sourceforge.net/DTD/sodipodi-0.dtd"
   xmlns:inkscape="http://www.inkscape.org/namespaces/inkscape"
   width="150"
   height="150"
   id="svg3501"
   version="1.1"
   inkscape:version="0.48.3.1 r9886"
   sodipodi:docname="whiteKing.svg"
   inkscape:export-filename="/home/adriano/Desktop/Images/png/whiteBishop.png"
   inkscape:export-xdpi="90"
   inkscape:export-ydpi="90">
  <defs
     id="defs3503" />
  <sodipodi:namedview
     id="base"
     pagecolor="#ffffff"
     bordercolor="#666666"
     borderopacity="1.0"
     inkscape:pageopacity="0.0"
     inkscape:pageshadow="2"
     inkscape:zoom="1.4"
     inkscape:cx="-93.368842"
     inkscape:cy="78.599051"
     inkscape:document-units="px"
     inkscape:current-layer="layer1"
     showgrid="false"
     inkscape:window-width="927"
     inkscape:window-height="1027"
     inkscape:window-x="991"
     inkscape:window-y="24"
     inkscape:window-maximized="0" />
  <metadata
     id="metadata3506">
    <rdf:RDF>
      <cc:Work
         rdf:about="">
        <dc:format>image/svg+xml</dc:format>
        <dc:type
           rdf:resource="http://purl.org/dc/dcmitype/StillImage" />
        <dc:title />
      </cc:Work>
    </rdf:RDF>
  </metadata>
  <g
     inkscape:label="Layer 1"
     inkscape:groupmode="layer"
     id="layer1"
     transform="translate(0,-902.36218)">
    <g
       id="g82263"
       transform="translate(-391.26633,-847.14782)">
      <path
         style="fill:none;stroke:#ffffff;stroke-width:8;stroke-linecap:round"
         inkscape:connector-curvature="0"
         id="path80321"
         d="m 466.207,1790.062 v -16.385" />
      <path
         style="fill:none;stroke:#ffffff;stroke-width:8;stroke-linecap:round"
         inkscape:connector-curvature="0"
         id="path80323"
         d="m 458.412,1779.68 h 15.337" />
      <path
         style="fill:none;stroke:#000000;stroke-width:5;stroke-linecap:round"
         inkscape:connector-curvature="0"
         id="path80300"
         d="m 466.361,1790.951 v -17.255" />
      <path
         style="fill:#ffffff;stroke:#000000;stroke-width:5"
         inkscape:connector-curvature="0"
         id="path80302"
         d="m 466.361,1831.98 c 0,0 13.803,-23.007 9.201,-32.21 0,0 -3.066,-7.668 -9.201,-7.668 -6.135,0 -9.202,7.668 -9.202,7.668 -4.601,9.203 9.202,32.21 9.202,32.21" />
      <path
         style="fill:#ffffff;stroke:#000000;stroke-width:5;stroke-linecap:round;stroke-linejoin:round"
         inkscape:connector-curvature="0"
         id="path80304"
         d="m 432.621,1868.791 c 16.869,10.736 47.542,10.736 64.411,0 v -21.473 c 0,0 27.605,-13.804 18.403,-32.209 -12.269,-19.939 -41.407,-10.736 -49.075,12.271 v 10.736 -10.736 c -10.735,-23.007 -39.874,-32.209 -49.076,-12.271 -9.201,18.406 15.337,30.676 15.337,30.676 v 23.006 z" />
      <path
         style="fill:none;stroke:#000000;stroke-width:5;stroke-linecap:round"
         inkscape:connector-curvature="0"
         id="path80306"
         d="m 458.693,1779.831 h 15.336" />
      <path
         style="fill:none;stroke:#000000;stroke-width:5;stroke-linecap:round"
         inkscape:connector-curvature="0"
         id="path80308"
         d="m 432.621,1845.784 c 16.869,-7.669 47.542,-7.669 64.411,1.534" />
      <path
         style="fill:none;stroke:#000000;stroke-width:5;stroke-linecap:round;stroke-linejoin:round"
         inkscape:connector-curvature="0"
         id="path80310"
         d="m 432.621,1868.791 c 16.869,-7.669 47.542,-7.669 64.411,0" />
      <path
         style="fill:none;stroke:#000000;stroke-width:5;stroke-linecap:round;stroke-linejoin:round"
         inkscape:connector-curvature="0"
         id="path80312"
         d="m 432.621,1858.054 c 16.869,-6.135 47.542,-6.135 64.411,0" />
    </g>
  </g>
</svg>
