<?xml version="1.0" encoding="UTF-8" standalone="no"?>
<!-- Created with Inkscape (http://www.inkscape.org/) -->

<svg
   xmlns:dc="http://purl.org/dc/elements/1.1/"
   xmlns:cc="http://creativecommons.org/ns#"
   xmlns:rdf="http://www.w3.org/1999/02/22-rdf-syntax-ns#"
   xmlns:svg="http://www.w3.org/2000/svg"
   xmlns="http://www.w3.org/2000/svg"
   xmlns:sodipodi="http://sodipodi.sourceforge.net/DTD/sodipodi-0.dtd"
   xmlns:inkscape="http://www.inkscape.org/namespaces/inkscape"
   width="150"
   height="150"
   id="svg3501"
   version="1.1"
   inkscape:version="0.48.3.1 r9886"
   sodipodi:docname="whiteKnight.svg"
   inkscape:export-filename="/home/adriano/Desktop/Images/png/whiteRook.png"
   inkscape:export-xdpi="90"
   inkscape:export-ydpi="90">
  <defs
     id="defs3503" />
  <sodipodi:namedview
     id="base"
     pagecolor="#ffffff"
     bordercolor="#666666"
     borderopacity="1.0"
     inkscape:pageopacity="0.0"
     inkscape:pageshadow="2"
     inkscape:zoom="1.4"
     inkscape:cx="-8.3688419"
     inkscape:cy="78.599051"
     inkscape:document-units="px"
     inkscape:current-layer="layer1"
     showgrid="false"
     inkscape:window-width="927"
     inkscape:window-height="1028"
     inkscape:window-x="993"
     inkscape:window-y="24"
     inkscape:window-maximized="0" />
  <metadata
     id="metadata3506">
    <rdf:RDF>
      <cc:Work
         rdf:about="">
        <dc:format>image/svg+xml</dc:format>
        <dc:type
           rdf:resource="http://purl.org/dc/dcmitype/StillImage" />
        <dc:title></dc:title>
      </cc:Work>
    </rdf:RDF>
  </metadata>
  <g
     inkscape:label="Layer 1"
     inkscape:groupmode="layer"
     id="layer1"
     transform="translate(0,-902.36218)">
    <g
       id="g60673"
       transform="translate(-321.9899,-901.43582)">
      <path
         inkscape:connector-curvature="0"
         id="path60675"
         d="m 395.847,1836.291 c 37.531,4.162 54.642,26.149 53.007,94.792 h -75.885 c -0.894,-36.918 30.719,-21.425 24.182,-68.821" />
      <path
         inkscape:connector-curvature="0"
         id="path60677"
         d="m 405.986,1863.176 c 1.37,9.71 -16.586,24.578 -25.312,30.02 -10.696,6.671 -10.052,14.485 -17.828,13.342 -4.118,-5.333 0.435,-5.904 -3.565,-3.335 -3.565,0 -14.273,3.335 -14.262,-13.342 0,-6.671 18.894,-40.026 18.894,-40.026 0,0 5.295,-6.345 5.702,-11.674 -2.589,-3.317 -1.068,-6.671 -1.068,-10.006 3.565,-3.336 12.661,8.339 12.661,8.339 h 4.274 c 0,0 3.681,-6.645 9.807,-10.007 3.565,0 3.565,10.007 3.565,10.007" />
      <path
         style="fill:#f2f2f2"
         inkscape:connector-curvature="0"
         id="path60679"
         d="m 354.994,1886.955 c 0,0.902 -0.732,1.634 -1.635,1.634 -0.903,0 -1.634,-0.732 -1.634,-1.634 0,-0.903 0.731,-1.634 1.634,-1.634 0.903,0 1.635,0.731 1.635,1.634 z" />
      <path
         style="fill:#f2f2f2"
         inkscape:connector-curvature="0"
         id="path60681"
         d="m 372.75,1855.085 c -1.354,2.345 -3.084,3.88 -3.866,3.429 -0.781,-0.452 -0.317,-2.718 1.036,-5.063 1.353,-2.345 3.085,-3.88 3.866,-3.429 0.782,0.452 0.318,2.719 -1.036,5.063 z" />
      <path
         inkscape:connector-curvature="0"
         id="path60683"
         d="m 404.181,1837.598 -0.98,3.596 1.798,0.327 c 10.137,1.56 20.667,7.303 28.025,21.226 7.358,13.923 9.551,35.835 7.926,68.335 l -0.163,0.027 h 5.72 v -0.027 c 1.643,-32.873 -2.865,-55.088 -10.622,-69.766 -7.758,-14.678 -18.921,-21.682 -30.028,-23.391 l -1.676,-0.327 z" />
      <path
         style="fill:#ffffff;stroke:#000000;stroke-linecap:round"
         inkscape:connector-curvature="0"
         id="path60685"
         d="m 396.952,1839.188 c 32.206,3.068 50.609,24.541 49.076,88.959 h -70.547 c 0,-27.608 30.673,-19.939 24.538,-64.419" />
      <path
         style="fill:#ffffff;stroke:#000000;stroke-linecap:round;stroke-linejoin:round"
         inkscape:connector-curvature="0"
         id="path60687"
         d="m 403.086,1863.728 c 1.18,8.931 -17.032,22.604 -24.538,27.608 -9.201,6.135 -8.646,13.322 -15.336,12.271 -3.195,-2.896 4.335,-9.318 0,-9.203 -3.067,0 0.574,3.778 -3.067,6.135 -3.067,0 -12.278,3.068 -12.269,-12.27 0,-6.135 18.403,-36.811 18.403,-36.811 0,0 5.784,-5.835 6.135,-10.737 -2.228,-3.05 -1.534,-6.135 -1.534,-9.203 3.067,-3.067 9.202,7.669 9.202,7.669 h 6.134 c 0,0 2.398,-6.11 7.669,-9.203 3.066,0 3.066,9.203 3.066,9.203" />
      <path
         style="stroke:#000000;stroke-width:0.32600001;stroke-linecap:round;stroke-linejoin:round"
         inkscape:connector-curvature="0"
         id="path60689"
         d="m 358.612,1886.735 c 0,0.847 -0.687,1.534 -1.534,1.534 -0.847,0 -1.533,-0.687 -1.533,-1.534 0,-0.847 0.687,-1.534 1.533,-1.534 0.847,0 1.534,0.687 1.534,1.534 z" />
      <path
         style="stroke:#000000;stroke-width:0.32600001;stroke-linecap:round;stroke-linejoin:round"
         inkscape:connector-curvature="0"
         id="path60691"
         d="m 375.276,1856.826 c -1.271,2.201 -2.895,3.642 -3.629,3.218 -0.733,-0.423 -0.298,-2.551 0.973,-4.751 1.271,-2.2 2.896,-3.642 3.629,-3.218 0.733,0.423 0.297,2.55 -0.973,4.751 z" />
      <path
         inkscape:connector-curvature="0"
         id="path60693"
         d="m 403.845,1840.415 -0.921,3.375 1.688,0.307 c 9.513,1.464 19.396,6.854 26.302,19.92 6.905,13.066 9.891,32.666 8.366,63.167 l -0.153,1.534 h 5.367 v -1.534 c 1.543,-30.85 -3.616,-50.734 -10.896,-64.509 -7.28,-13.774 -17.756,-20.348 -28.181,-21.952 l -1.572,-0.308 z" />
    </g>
  </g>
</svg>
