<?xml version="1.0" encoding="UTF-8" standalone="no"?>
<!-- Created with Inkscape (http://www.inkscape.org/) -->

<svg
   xmlns:dc="http://purl.org/dc/elements/1.1/"
   xmlns:cc="http://creativecommons.org/ns#"
   xmlns:rdf="http://www.w3.org/1999/02/22-rdf-syntax-ns#"
   xmlns:svg="http://www.w3.org/2000/svg"
   xmlns="http://www.w3.org/2000/svg"
   xmlns:sodipodi="http://sodipodi.sourceforge.net/DTD/sodipodi-0.dtd"
   xmlns:inkscape="http://www.inkscape.org/namespaces/inkscape"
   width="150"
   height="150"
   id="svg3501"
   version="1.1"
   inkscape:version="0.48.3.1 r9886"
   sodipodi:docname="whiteBishop.svg"
   inkscape:export-filename="/home/adriano/Desktop/Images/png/whiteKnight.png"
   inkscape:export-xdpi="90"
   inkscape:export-ydpi="90">
  <defs
     id="defs3503" />
  <sodipodi:namedview
     id="base"
     pagecolor="#ffffff"
     bordercolor="#666666"
     borderopacity="1.0"
     inkscape:pageopacity="0.0"
     inkscape:pageshadow="2"
     inkscape:zoom="1.4"
     inkscape:cx="-8.3688419"
     inkscape:cy="78.599051"
     inkscape:document-units="px"
     inkscape:current-layer="layer1"
     showgrid="false"
     inkscape:window-width="927"
     inkscape:window-height="1028"
     inkscape:window-x="993"
     inkscape:window-y="24"
     inkscape:window-maximized="0" />
  <metadata
     id="metadata3506">
    <rdf:RDF>
      <cc:Work
         rdf:about="">
        <dc:format>image/svg+xml</dc:format>
        <dc:type
           rdf:resource="http://purl.org/dc/dcmitype/StillImage" />
        <dc:title></dc:title>
      </cc:Work>
    </rdf:RDF>
  </metadata>
  <g
     inkscape:label="Layer 1"
     inkscape:groupmode="layer"
     id="layer1"
     transform="translate(0,-902.36218)">
    <g
       id="g3010"
       transform="matrix(3.067229,0,0,3.067558,-796.97026,-2147.1635)">
      <path
         style="fill:#ffffff;stroke:#000000;stroke-width:1.63;stroke-linejoin:round"
         inkscape:connector-curvature="0"
         id="path2996"
         d="m 270.786,1032.414 c 3.385,-0.972 10.115,0.431 13.5,-2 3.385,2.431 10.115,1.028 13.5,2 0,0 1.646,0.542 3,2 -0.677,0.972 -1.646,0.986 -3,0.5 -3.385,-0.972 -10.115,0.458 -13.5,-1 -3.385,1.458 -10.115,0.028 -13.5,1 -1.354,0.486 -2.323,0.472 -3,-0.5 1.354,-1.944 3,-2 3,-2 z" />
      <path
         style="fill:#ffffff;stroke:#000000;stroke-width:1.63;stroke-linejoin:round"
         inkscape:connector-curvature="0"
         id="path2998"
         d="m 276.786,1028.414 c 2.5,2.5 12.5,2.5 15,0 0.5,-1.5 0,-2 0,-2 0,-2.5 -2.5,-4 -2.5,-4 5.5,-1.5 6,-11.5 -5,-15.5 -11,4 -10.5,14 -5,15.5 0,0 -2.5,1.5 -2.5,4 0,0 -0.5,0.5 0,2 z" />
      <path
         style="fill:#ffffff;stroke:#000000;stroke-width:1.63;stroke-linejoin:round"
         inkscape:connector-curvature="0"
         id="path3000"
         d="m 286.786,1004.414 c 0,1.381 -1.119,2.5 -2.5,2.5 -1.381,0 -2.5,-1.119 -2.5,-2.5 0,-1.381 1.119,-2.5 2.5,-2.5 1.38,0 2.5,1.12 2.5,2.5 z" />
      <path
         style="fill:none;stroke:#000000;stroke-width:1.63"
         inkscape:connector-curvature="0"
         id="path3002"
         d="m 279.286,1022.414 h 10" />
      <path
         style="fill:none;stroke:#000000;stroke-width:1.63"
         inkscape:connector-curvature="0"
         id="path3004"
         d="m 276.786,1026.414 h 15" />
      <path
         style="fill:none;stroke:#000000;stroke-width:1.63;stroke-linecap:round"
         inkscape:connector-curvature="0"
         id="path3006"
         d="m 284.286,1011.914 v 5" />
      <path
         style="fill:none;stroke:#000000;stroke-width:1.63;stroke-linecap:round"
         inkscape:connector-curvature="0"
         id="path3008"
         d="m 281.786,1014.414 h 5" />
    </g>
  </g>
</svg>
